<svg xmlns="http://www.w3.org/2000/svg" xmlns:xlink="http://www.w3.org/1999/xlink" xmlns:xodm="http://www.corel.com/coreldraw/odm/2003" xml:space="preserve" width="400px" height="325px" style="shape-rendering:geometricPrecision; text-rendering:geometricPrecision; image-rendering:optimizeQuality; fill-rule:evenodd; clip-rule:evenodd" viewBox="0 0 30.33 24.64"> <defs>  <style type="text/css">   <![CDATA[    .str0 {stroke:#2CC3BA;stroke-width:0.55;stroke-linecap:round;stroke-linejoin:round;stroke-miterlimit:22.9256}    .str1 {stroke:#2CC3BA;stroke-width:0.55;stroke-linecap:round;stroke-linejoin:round;stroke-miterlimit:22.9256;stroke-dasharray:1.100000 1.640000}    .fil0 {fill:none}   ]]>  </style> </defs> <g id="Warstwa_x0020_1">  <metadata id="CorelCorpID_0Corel-Layer"></metadata>  <polygon class="fil0 str0" points="7.83,7.78 15.94,12.58 15.94,21.51 7.83,16.71 "></polygon>  <polygon class="fil0 str0" points="7.83,7.78 16.04,3.15 24.05,7.78 15.94,12.58 "></polygon>  <polygon class="fil0 str0" points="11.24,9.8 12.76,10.69 12.76,13.37 11.24,12.48 "></polygon>  <polygon class="fil0 str0" points="11.24,9.8 12.77,10.66 20.84,5.92 19.33,5.05 "></polygon>  <polyline class="fil0 str0" points="24.05,12.33 24.05,7.78 15.94,12.58 15.94,21.51 18.13,20.21 "></polyline>  <circle class="fil0 str0" cx="23.24" cy="18.01" r="4.65"></circle>  <polyline class="fil0 str0" points="23.32,14.8 23.24,18.01 26.53,18.01 "></polyline>  <line class="fil0 str1" x1="0.97" y1="11.65" x2="4.26" y2="11.65"></line>  <line class="fil0 str0" x1="3.13" y1="14.22" x2="4.36" y2="14.22"></line>  <line class="fil0 str0" x1="5.41" y1="14.22" x2="6.03" y2="14.22"></line>  <line class="fil0 str0" x1="3.13" y1="9.04" x2="4.36" y2="9.04"></line>  <line class="fil0 str0" x1="5.41" y1="9.04" x2="6.03" y2="9.04"></line>  <rect class="fil0" width="30.33" height="24.64"></rect> </g></svg>